<svg version="1.1" id="headerDrawing" xmlns="http://www.w3.org/2000/svg"  x="0px" y="0px"
                viewBox="0 0 808 454">
                <g>
                    <g class="catWrapper">
                        <g class="cat">
                            <path class="catFace" d="M282.65,219.12c6.05-27.74,20.08-53.97,40.28-75.26c7.81-8.23,18.25-16.31,30.02-14.98
                                c12.81,1.46,21.12,13.67,23.42,25.39s0.51,23.87,2.74,35.6c0.57,3.02,1.54,6.19,4.07,8.17c2.87,2.25,6.98,2.39,10.75,2.42
                                c23.53,0.19,47.06,0.38,70.6,0.56c13.31,0.11,29.73-1.59,34.71-12.98c3.63-8.31-1.01-17.48-4.38-25.88
                                c-3.37-8.4-4.74-19.45,2.99-24.87c7.36-5.16,18.02-1.66,25.76,3.01c15.01,9.05,27.23,21.99,34.89,36.95
                                c18.58,36.29,8,81.81-20.19,112.38c-28.19,30.57-71.31,47.18-114.59,51.18c-16.97,1.57-34.26,1.35-50.9-2.1
                                C315.63,326.87,270.96,272.75,282.65,219.12z"/>
                            <path class="catEar" d="M347.45,159.52c-8.75-1.44-17.04,8.29-22.07,16.14c-2.27,3.54-3.93,8.17-1.89,11.85
                                c2.5,4.5,8.81,4.82,13.87,3.95c6.2-1.06,12.48-3.19,16.9-7.68c4.41-4.48,6.41-11.76,3.38-17.27
                                C354.62,161,349.05,159.79,347.45,159.52z"/>
                            <path class="catEar" d="M517.71,160.66c-7.11-0.79-8.01,7.8-8.28,14.58c-0.27,6.79,4.13,14.26,11.21,15.26
                                c10.08,1.42,16.91-11.81,12.31-20.43S519.16,160.83,517.71,160.66z"/>
                            <path class="catEye" d="M449.66,243.57c4.12-7.75,13.12-12.61,21.86-11.79c8.74,0.81,16.69,7.25,19.3,15.63"/>
                            <path class="catEye" d="M349.82,252.38c1.95-8.55,9.38-15.59,18.03-17.08c8.65-1.49,18,2.65,22.71,10.06"/>
                            <path class="catMouth" d="M367.56,279.48c-7.48,14.67,1.05,35.09,16.74,40.08c15.69,4.99,34.45-6.74,37.24-20.95
                                c4.43,8.59,10.19,18.13,19.72,19.75c7.22,1.23,14.53-2.79,19.22-8.42c4.69-5.63,7.26-12.67,9.75-19.57"/>
                            <path class="catNose" d="M405.56,279.09c0.26,9.34,8.93,17.71,18.28,17.38c9.34-0.33,17.48-9.52,16.43-18.81
                                c-0.2-1.76-0.71-3.54-1.84-4.91c-2.43-2.93-6.82-3.08-10.6-2.67C417.3,271.22,405.43,274.59,405.56,279.09z"/>
                        </g>
                    </g>
                    <g class="leftFlowerGroup">
                        <path class="leftFlower" d="M85.98,233.76c-13.16-32.12-18.61-67.36-15.78-101.95c0.68-8.29,5.4-19.2,13.46-17.12
                            c2.81,0.73,4.92,3,6.78,5.24c22.43,27.03,31.57,62.3,46.16,94.25c2.6,5.7,5.73,11.67,11.27,14.6c13.68,7.23,27.54-8.13,39.99-17.32
                            c11.98-8.84,28.67-12.44,42.07-5.96c13.41,6.48,20.97,24.55,13.47,37.42c-9.11,15.62-35.91,21.47-33.93,39.44
                            c0.94,8.54,8.64,14.41,15.12,20.05c14.18,12.34,25.18,28.29,31.67,45.92c4.75,12.9,5.81,30.08-5.59,37.76
                            c-12.83,8.63-30.02-2.04-39.62-14.16c-9.6-12.13-31.27-51.38-33.46-30.6c-2.45,23.28-8.36,46.63-22.48,65.3
                            c-5.45,7.2-12.07,13.94-20.53,17.12c-8.45,3.17-19.04,1.98-25.02-4.79c-9.08-10.28-3.71-26.22,1.72-38.82
                            c5.43-12.6,9.7-29.25-0.53-38.39c-2.82-2.52-6.39-4.01-9.83-5.59c-38.63-17.68-69.31-51.96-82.6-92.3
                            c-3.57-10.82-4-26.02,6.64-30.11c9.32-3.58,18.57,4.87,24.98,12.52c17.85,21.28,28.25,36.92,46.1,58.2
                            C127.19,321.6,87.88,233.86,85.98,233.76z"/>
                        <path class="leftFlowerMiddle" d="M142.21,276.51c-15.09,5.28-20.86,27.26-10.45,39.39s32.8,9.96,40.83-3.86c5.68-9.76,3.77-23.31-4.39-31.13
                            C160.04,273.1,146.43,271.78,142.21,276.51z"/>
                    </g>
                    <g class="rightFlowerGroup">
                        <path class="rightFlower" d="M655.55,225.57c9.5,11.06-4.1-32.55-1.65-48.65c2.44-16.1,10.01-32.13,23.55-41.18s33.56-9.13,44.95,2.5
                            c12.37,12.63,10.89,33.55,3.94,49.8c-6.95,16.25-8.02,27.45-19.12,41.21c-16.75,20.76,22.18-22.9,40.95-26.92
                            c18.76-4.03,41.62,6.12,45.18,24.98c2.78,14.72-2.48,27.58-11.73,39.36c-9.73,12.38-27.15,23.41-45.88,13.14
                            c-21.99-12.05,42.92,25.55,41.79,50.61c-0.52,11.45-7.01,21.93-15.27,29.88c-11.91,11.46-30.33,18.02-45.04,10.48
                            c-16.27-8.34-18.25-66.46-26.5-31.09c-8.29,35.53-17.4,31.82-31.1,35.96c-14.86,4.5-51.2-4.71-52.31-27.77
                            c-1.13-23.36,25.47-37.5,48.74-39.85c16.15-1.63-29.79-12.87-41.91-23.43c-12.11-10.57-21.05-26.04-19.76-42.06
                            s15.28-31.22,31.32-30.18C637.2,213.12,649.13,218.1,655.55,225.57z"/>
                        <path class="rightFlowerMiddle" d="M692.28,261.12c-10.18,5.12-22.07,13.39-20.09,24.62c0.51,2.88,1.94,5.5,3.5,7.97
                            c7.53,11.91,22.34,22.14,35.07,16.1c4-1.9,7.22-5.23,9.41-9.08c5.96-10.51,3.57-25.04-5.45-33.08
                            C705.7,259.6,690.99,258.88,692.28,261.12z"/>
                    </g>
                    <path class="leftHeart" d="M208.95,118.32c5.57,11.79-15.51-18.68-26.48-23.2c-10.97-4.51-25.79-2.06-31.3,8.44
                        c-2.52,4.8-2.74,10.55-1.69,15.87c4.07,20.57,24.66,33.18,44.04,41.18c11.04,4.56,22.44,8.49,34.26,10.18
                        c2.6,0.37,5.33,0.62,7.8-0.28c3.18-1.16,5.42-4.05,6.99-7.05c5.27-10.07,4.75-22.12,3.09-33.36c-2.47-16.68-7.18-33.03-13.97-48.46
                        c-2.2-5-4.73-10.05-8.91-13.57c-4.18-3.52-10.4-5.13-15.21-2.53c-4.42,2.39-6.52,7.55-7.64,12.44
                        C196.77,91.74,202.32,104.3,208.95,118.32z"/>
                    <path class="rightHeart" d="M606.12,81.16c-3.31,7.44-3.66-15.85-5.89-23.68c-2.23-7.83-6.06-15.67-12.86-20.14s-17.11-4.27-22.11,2.16
                        c-3.13,4.02-3.63,9.44-4,14.52c-2.07,28.18-3.99,57.42,6.08,83.82c0.86,2.25,1.9,4.59,3.92,5.9c1.71,1.11,3.84,1.29,5.88,1.32
                        c21.3,0.4,41.25-11.23,56.46-26.15c11.57-11.35,21.54-28.46,14.55-43.08c-4.41-9.22-15.54-14.67-25.53-12.49
                        C612.63,65.51,610.99,70.19,606.12,81.16z"/>
                </g>
            </svg>