<svg version="1.1" id="heartVector" xmlns="http://www.w3.org/2000/svg" xmlns:xlink="http://www.w3.org/1999/xlink" x="0px" y="0px"
    width="270px" height="240px" viewBox="0 0 270 240" style="enable-background:new 0 0 270 240;" xml:space="preserve">
    <path class="st1" d="M142.51,95.41c-2.23-24.71-10.63-51.07-31.36-64.71c-28.89-19.01-71.89-2.61-87.32,28.34
        S16.9,128.95,37.8,156.5s52.18,45.35,84.18,58.47c5.23,2.15,10.75,4.23,16.38,3.72c4.97-0.45,9.52-2.88,13.83-5.4
        c39.25-22.98,71.18-58.26,90.14-99.59c5.34-11.63,9.73-24.03,9.74-36.82s-4.97-26.13-15.32-33.65c-11.09-8.05-26.19-8.16-39.52-4.96
        C168.06,45.28,142.93,67.28,142.51,95.41z"/>
</svg>