<svg version="1.1" id="linkedin" xmlns="http://www.w3.org/2000/svg" xmlns:xlink="http://www.w3.org/1999/xlink" x="0px" y="0px"
	 width="1730.62px" height="1373.88px" viewBox="0 0 1730.62 1373.88" style="enable-background:new 0 0 1730.62 1373.88;"
	 xml:space="preserve">
<path class="st4" d="M235.73,345.3c-17.51,245.11-22.38,490.85-14.59,736.31c1.57,49.4,4.67,101.59,37.27,142.93
	c58.3,73.92,182.28,82.98,288.7,83.76c208.06,1.53,416.13,0.44,624.19-0.66c67.47-0.36,134.94-0.71,202.41-1.07
	c26.84-0.14,55.83-0.87,77.05-14.51c21.46-13.8,29.49-37.27,35.91-59.17c85.62-291.89,108.6-596.36,67.52-894.84
	c-5.78-42.03-13.56-85.61-42-120.71c-50.12-61.86-148.33-80.18-237.22-90.65c-287.18-33.82-579.39-38.05-867.81-12.56
	c-50.64,4.47-104.44,11.03-142.82,38.82c-44.76,32.41-57.3,85.48-61.72,134.66C195.07,371.77,203.56,456.92,235.73,345.3z"/>
<path class="st4" d="M451.52,546.42c-9.71,179.4-19.41,358.8-29.12,538.2c-0.9,16.7-1.03,35.55,10.92,47.46
	c8.38,8.35,20.77,11.15,32.46,13.47c59.65,11.85,134.01,15.37,168.2-34.13c14.75-21.35,18.07-48.14,20.71-73.81
	c14.83-144.31,21.05-289.46,18.64-434.49c-0.27-15.99-0.89-32.86-9.46-46.46c-13.88-22.02-43.32-28.06-69.57-30.34
	C548.7,522.37,502.65,523.61,451.52,546.42z"/>
<path class="st4" d="M581.42,220.34c-15.72,24.88-42.93,39.96-65.98,58.52c-23.05,18.56-43.9,45.83-38.43,74.62
	c4.3,22.66,24.51,39.91,46.68,47.41c22.18,7.5,46.24,6.94,69.66,5.76c13.11-0.66,26.53-1.56,38.53-6.79
	c29.28-12.78,41.94-48.74,37.39-79.91c-4.55-31.17-22.38-58.69-39.79-85.13C621.55,222.77,605.91,209.28,581.42,220.34z"/>
<path class="st4" d="M836.9,500.39c-12.57,144.46-25.14,288.92-37.72,433.38c-3.29,37.77-6.54,76.18,1.33,113.28
	c7.87,37.11,28.59,73.41,62.56,91.35c33.9,17.91,75.09,15.07,112.85,7.75c9.69-1.88,19.61-4.14,27.7-9.71
	c13.26-9.13,19.18-25.34,23.34-40.72c31.22-115.39,13.04-254.71,100.58-337.48c10.66-10.08,24.54-19.38,39.11-16.88
	c23.3,4,30.59,32.99,31.84,56.2c2.05,37.93,1.53,75.99-1.56,113.85c-4.43,54.33-13.89,110.7,4.63,162.06
	c18.52,51.37,78.08,93.62,128.85,71.74c36.43-15.7,53.57-56.47,64.08-94.19c32.64-117.17,34.5-242.49,5.35-360.54
	c-6.07-24.61-13.75-49.48-29.14-69.78c-14.16-18.69-34.04-32.39-54.48-44.2c-89.16-51.52-215.5-66.83-287.38,6.27
	c-12.06,12.26-22.31,26.74-37.15,35.58c-14.84,8.84-36.66,9.89-47.5-3.44c-16.4-20.17,4.81-47.75,13.88-71.97
	c12.92-34.51-5.62-78.41-40.92-90.6C881.88,440.16,839.85,466.49,836.9,500.39z"/>
</svg>
