<?xml version="1.0" encoding="utf-8"?>
<!-- Generator: Adobe Adobe Illustrator 24.2.0, SVG Export Plug-In . SVG Version: 6.00 Build 0)  -->
<svg version="1.1" id="Layer_1" xmlns="http://www.w3.org/2000/svg" xmlns:xlink="http://www.w3.org/1999/xlink" x="0px" y="0px"
	 width="3369.78px" height="2724.64px" viewBox="0 0 3369.78 2724.64" style="enable-background:new 0 0 3369.78 2724.64;"
	 xml:space="preserve">
<style type="text/css">
	.st0{fill:#FFFFFF;stroke:#000000;stroke-width:23;stroke-linecap:round;stroke-linejoin:round;stroke-miterlimit:10;}
	.st1{fill:#FFFFFF;stroke:#000000;stroke-width:22;stroke-linecap:round;stroke-linejoin:round;stroke-miterlimit:10;}
	.st2{fill:#FFFFFF;stroke:#000000;stroke-width:33;stroke-linecap:round;stroke-linejoin:round;stroke-miterlimit:10;}
	.st3{fill:#bf2828;stroke:#f0c123;stroke-width:70;stroke-linecap:round;stroke-linejoin:round;stroke-miterlimit:10;}
</style>
<g>
	<path class="st3" d="M928.65,1220.63c65.81,119.53,132.2,240.58,160.84,369.84c28.64,129.26,16.03,269.69-67.83,381.15
		c-24.75,32.89-58.01,64.27-102.87,75.03c-96.57,23.15-180.4-55.08-243.41-120.13s-172.46-130.09-253.91-81.18
		c-24.75,14.87-40.45,37.8-53.89,60.59c-45.1,76.49-73.49,164.44-48.07,246.95c30.96,100.5,137.68,175.26,254.5,211.9
		s244.09,41.33,368.86,45.61c107.79,3.7,221.29,6.4,316.98-34.99c121.35-52.49,187.34-164.78,222.58-274.6
		c58.25-181.51,54.41-372.84,33.44-559.88c-15.98-142.5-44.22-289.92-141.79-407.87s-282.74-197.13-445.54-150.33
		C841.25,1087.66,850.52,1241.04,928.65,1220.63z"/>
	<path class="st3" d="M1006.63,321.12c-101.38,13.43-203.08,46.76-270.5,111.08s-91.88,163.97-39.03,237.09
		c39.49,54.64,114.98,86.43,191.08,94.55c164.4,17.54,342.18-86.02,352.9-223.43S1060.19,277.55,1006.63,321.12z"/>
</g>
<path class="st3" d="M2655.73,757.78c-108.71-144.62-274.4-312.54-464.17-281.31c-81.54,13.42-143.59,63.16-193.18,116.31
	c-96.25,103.14-161.24,225.79-203.39,354.14c-79.12,240.95-75.6,515.06,69.58,751.78s450.19,423.47,757.54,417.13
	c129.46-2.67,260.9-43.34,325.56-131.84c51.84-70.96,54.28-161.92,45.37-248.57c-9.7-94.35-32.53-191.56-94.71-274.99
	c-62.18-83.43-170.53-150.74-284.05-152.95c-92.51-1.8-173.4,37.94-261.12,56.05c-87.73,18.11-204.78,3.67-248.48-67.19
	c-19.32-31.32-19.56-66.86-17.56-100.5c4.21-70.8,17.36-143.09,63.44-199.76c46.07-56.68,132.02-94.1,217.01-75.45
	c89.55,19.65,150.26,91.04,223.38,141.19c73.12,50.15,199.74,72.06,236.47,6.24c13.63-24.43,9.65-54.18,1.99-81.88
	C2801.62,885.66,2727.23,791.1,2655.73,757.78z"/>
</svg>
